<?xml version="1.0" encoding="UTF-8"?>
<svg width="37px" height="37px" viewBox="0 0 37 37" version="1.1" xmlns="http://www.w3.org/2000/svg" xmlns:xlink="http://www.w3.org/1999/xlink">
    <!-- Generator: Sketch 46.2 (44496) - http://www.bohemiancoding.com/sketch -->
    <title>Group 11</title>
    <desc>Created with Sketch.</desc>
    <defs></defs>
    <g id="Cardapio" stroke="none" stroke-width="1" fill="none" fill-rule="evenodd">
        <g id="Cardapio_1920-1441" transform="translate(-401.000000, -1265.000000)">
            <g id="Group-3" transform="translate(310.000000, 1230.000000)">
                <g id="Group-11" transform="translate(92.000000, 36.000000)">
                    <circle id="Oval" stroke="#FFFFFF" cx="17.5058594" cy="17.5058594" r="17.5058594"></circle>
                    <g id="Page-1" transform="translate(9.000000, 9.000000)" fill="#FFFFFF">
                        <g id="INS-ICON">
                            <path d="M8.4839699,15.449905 C9.61789318,15.449905 10.7521582,15.4550302 11.8864232,15.4461465 C12.1659739,15.4440964 12.4520179,15.427354 12.7233666,15.3661932 C14.3685464,14.9961527 15.4464229,13.6410463 15.4505239,11.9405004 C15.4563336,9.6485049 15.4542831,7.3565094 15.4484734,5.06451389 C15.4477899,4.80107792 15.4262597,4.53183336 15.3685041,4.27557269 C14.9973647,2.63106249 13.6430133,1.55340092 11.9417866,1.54930075 C9.64933409,1.54383386 7.3568816,1.54554226 5.0644291,1.55135084 C4.80128235,1.5520342 4.53164236,1.5735601 4.27567234,1.63130417 C2.63083426,2.00271131 1.55261606,3.35645105 1.54851508,5.05733859 C1.54270534,7.3493341 1.54441409,9.6413296 1.55056557,11.9333251 C1.55124907,12.1967611 1.57277926,12.4660056 1.63053484,12.7222663 C1.99996555,14.3582345 3.34919072,15.4376045 5.03298819,15.4485383 C6.18331543,15.4560552 7.33364266,15.449905 8.4839699,15.449905 M16.9969382,8.52369137 C16.9969382,9.64952995 16.9993305,10.7753685 16.9965965,11.9015488 C16.9914703,14.1429755 15.6849637,16.0116284 13.5633857,16.7240331 C13.040168,16.8999987 12.4619286,16.9761936 11.9072699,16.9826855 C9.63908162,17.0107033 7.37055156,16.9970361 5.10202149,16.993961 C2.66056642,16.9905442 0.682864783,15.433846 0.126497361,13.0598471 C0.0376426136,12.6802396 0.00927744404,12.2794479 0.00722694986,11.8878815 C-0.00336727008,9.62800405 5.02202218e-05,7.36846823 0.00278421246,5.10824905 C0.00585995374,2.6631805 1.55295781,0.694073449 3.93221456,0.128933233 C4.29583553,0.0424879644 4.68030319,0.0100282785 5.05554363,0.00866155486 C7.34799612,-0.00227223407 9.64044862,-0.00193055316 11.9329011,0.00456138401 C14.3504338,0.0113950021 16.3400966,1.59508599 16.8766426,3.9496091 C16.9631051,4.32955827 16.9866858,4.73034997 16.991812,5.12191629 C17.0065072,6.25561353 16.9969382,7.38965245 16.9969382,8.52369137" id="Fill-1"></path>
                            <path d="M11.4996617,8.50090478 C11.4999935,6.84473542 10.1689468,5.5074558 8.51268796,5.50048735 C6.84746918,5.49351889 5.50082554,6.83411682 5.50016184,8.4989138 C5.49982999,10.1550832 6.83087673,11.4923628 8.48746743,11.4993312 C10.1523544,11.5069633 11.498998,10.1660336 11.4996617,8.50090478 M4.00020391,8.47037631 C4.0237652,5.99060199 6.07127414,3.97273664 8.5352537,4.00027863 C11.0168213,4.02848428 13.031809,6.07787358 12.9996196,8.54105635 C12.9670984,11.0148577 10.9341908,13.0184543 8.47651641,12.9998718 C5.99793549,12.9806256 3.97664263,10.9355501 4.00020391,8.47037631" id="Fill-4"></path>
                            <path d="M14,4.00048174 C14,4.55568342 13.5380103,5.00962806 12.9826448,4.99984477 C12.4414569,4.99055065 12,4.54149765 12,3.99999257 C12.0004889,3.44430172 12.4624786,2.99084624 13.0173552,3.00014037 C13.559032,3.00992366 14,3.45897665 14,4.00048174" id="Fill-6"></path>
                        </g>
                    </g>
                </g>
            </g>
        </g>
    </g>
</svg>