<?xml version="1.0" encoding="UTF-8"?>
<svg width="37px" height="37px" viewBox="0 0 37 37" version="1.1" xmlns="http://www.w3.org/2000/svg" xmlns:xlink="http://www.w3.org/1999/xlink">
    <!-- Generator: Sketch 46.2 (44496) - http://www.bohemiancoding.com/sketch -->
    <title>Group 2</title>
    <desc>Created with Sketch.</desc>
    <defs></defs>
    <g id="Cardapio" stroke="none" stroke-width="1" fill="none" fill-rule="evenodd">
        <g id="Cardapio_1920-1441" transform="translate(-309.000000, -1265.000000)">
            <g id="Group-3" transform="translate(310.000000, 1230.000000)">
                <g id="Group-2" transform="translate(0.000000, 36.000000)">
                    <circle id="Oval-Copy" stroke="#FFFFFF" cx="17.5058594" cy="17.5058594" r="17.5058594"></circle>
                    <path d="M24.9997,12.5528935 C24.4445911,12.8210393 23.8546704,12.994158 23.2294673,13.0746018 C23.8664311,12.6643857 24.3556796,12.0184836 24.5871318,11.2446242 C23.9910954,11.6219101 23.3315508,11.8924081 22.6287266,12.0500025 C22.0693838,11.4031596 21.2668281,11 20.3838287,11 C18.6846311,11 17.306738,12.4818584 17.306738,14.3137176 C17.306738,14.5710435 17.3335526,14.8255468 17.3848296,15.0649963 C14.8317992,14.9332756 12.5610277,13.6090116 11.0424756,11.6082676 C10.7785637,12.0961048 10.6275553,12.6643857 10.6275553,13.2735942 C10.6275553,14.4205055 11.1699625,15.4408709 11.9969806,16.0260873 C11.4917375,16.0053884 11.0170723,15.8647294 10.6026224,15.6139896 L10.6026224,15.6596214 C10.6026224,17.2614398 11.6634449,18.5988758 13.0709751,18.9079491 C12.8131788,18.9832181 12.5407991,19.0175596 12.2580699,19.0175596 C12.0604888,19.0175596 11.8727868,19.0039171 11.6827325,18.9587557 C12.07272,20.2797266 13.2102228,21.2389359 14.556597,21.258694 C13.5033014,22.1515725 12.1766853,22.6765737 10.7348136,22.6765737 C10.485485,22.6765737 10.2399199,22.6619904 10,22.630001 C11.361428,23.574627 12.975948,24.1245611 14.7174844,24.1245611 C20.3772427,24.1245611 23.4740915,19.0749522 23.4740915,14.6971191 C23.4740915,14.557401 23.4707985,14.4153308 23.463742,14.2732605 C24.0644827,13.8000067 24.5871318,13.2157311 24.9997,12.5528935" id="Fill-1" fill="#FFFFFF"></path>
                </g>
            </g>
        </g>
    </g>
</svg>